<svg xmlns="http://www.w3.org/2000/svg" viewBox="0 0 24 24" fill="currentColor">
  <path d="M5.203 3.036C7.957 5.104 10.918 9.297 12 11.547c1.082-2.25 4.043-6.443 6.797-8.511C20.783 1.545 24 .43 24 4.1c0 .733-.42 6.156-.667 7.037-.856 3.06-3.976 3.842-6.75 3.37 4.85.826 6.084 3.56 3.42 6.294-5.06 5.194-7.273-1.303-7.84-2.968-.105-.305-.154-.448-.155-.327-.001-.121-.05.022-.154.327-.568 1.665-2.78 8.162-7.84 2.968-2.665-2.735-1.431-5.468 3.42-6.294-2.775.472-5.895-.31-6.751-3.37C.42 10.256 0 4.833 0 4.1c0-3.67 3.217-2.555 5.203-1.064Z"/>
</svg>
